<svg width="16" height="22" viewBox="0 0 16 22" fill="none" xmlns="http://www.w3.org/2000/svg">
<path d="M2 22C1.45 22 0.979002 21.804 0.587002 21.412C0.195002 21.02 -0.000664969 20.5493 1.69779e-06 20V9C1.69779e-06 8.45 0.196001 7.979 0.588001 7.587C0.980001 7.195 1.45067 6.99933 2 7H5V9H2V20H14V9H11V7H14C14.55 7 15.021 7.196 15.413 7.588C15.805 7.98 16.0007 8.45067 16 9V20C16 20.55 15.804 21.021 15.412 21.413C15.02 21.805 14.5493 22.0007 14 22H2ZM7 15V3.825L5.4 5.425L4 4L8 0L12 4L10.6 5.425L9 3.825V15H7Z" fill="#323D4F"/>
</svg>
